# xmcd
#
# Track frame offsets:
# 150
# 13222
# 28275
# 41632
# 57302
# 69427
# 83175
# 93532
# 115047
# 128585
# 142692
# 157132
# 170642
# 185590
#
# Disc length: 2643 seconds
#
#
# Revision: 0
# Processed by: cddbd v1.5.1PL0 Copyright (c) Steve Scherf et al.
# Submitted via: FreeRIP 2.70 
#
DISCID=c00a510e
DTITLE=Clarence Wijewardene - All Time Hits Of Clarence
DYEAR=1999
DGENRE=Other
TTITLE0=Surangana Wes Wala
TTITLE1=Hindi Wandan
TTITLE2=Pudana Vimane
TTITLE3=Muhudu Ralla
TTITLE4=Rohini Oya wethin
TTITLE5=Sihina Genena Oba
TTITLE6=Mayame Susata mayame
TTITLE7=Sihin Nuwan Thula
TTITLE8=Muthu Warusawak Wahala
TTITLE9=Mage Wiyowen
TTITLE10=Muthu manike Ude Rayayi
TTITLE11=Ra Sihina Ral Wal
TTITLE12=Sihin Sinawai
TTITLE13=Adareta Kiyana Katha
EXTD=
EXTT0=
EXTT1=
EXTT2=
EXTT3=
EXTT4=
EXTT5=
EXTT6=
EXTT7=
EXTT8=
EXTT9=
EXTT10=
EXTT11=
EXTT12=
EXTT13=
PLAYORDER=
